<svg xmlns="http://www.w3.org/2000/svg" xmlns:xlink="http://www.w3.org/1999/xlink" version="1.1" width="256" height="256" viewBox="0 0 256 256" xml:space="preserve">

<defs>
</defs>
<g style="stroke: none; stroke-width: 0; stroke-dasharray: none; stroke-linecap: butt; stroke-linejoin: miter; stroke-miterlimit: 10; fill: none; fill-rule: nonzero; opacity: 1;" transform="translate(1.4065934065934016 1.4065934065934016) scale(2.81 2.81)" >
	<path d="M 79.845 34.845 c 0 -2.979 -1.134 -5.958 -3.401 -8.225 L 53.231 3.408 c -2.196 -2.197 -5.117 -3.407 -8.225 -3.407 c -3.107 0 -6.028 1.21 -8.225 3.407 L 13.555 26.634 c -4.527 4.526 -4.534 11.9 -0.015 16.435 v 0 c 2.195 2.204 5.118 3.42 8.229 3.423 c 3.111 0.003 6.037 -1.207 8.236 -3.407 l 3.37 -3.37 l 0 38.655 c 0 6.414 5.218 11.632 11.632 11.632 c 6.414 0 11.632 -5.218 11.632 -11.632 V 39.714 l 3.355 3.355 c 4.535 4.535 11.915 4.535 16.45 0 C 78.711 40.802 79.845 37.824 79.845 34.845 z M 12.154 34.859 c 0 -2.467 0.938 -4.934 2.815 -6.811 L 38.195 4.822 c 1.819 -1.819 4.238 -2.821 6.811 -2.821 c 2.573 0 4.991 1.002 6.811 2.821 l 23.213 23.212 c 3.754 3.755 3.755 9.866 0 13.622 c -3.756 3.755 -9.866 3.755 -13.622 0 l -5.063 -5.063 c -0.286 -0.286 -0.716 -0.372 -1.09 -0.217 s -0.617 0.52 -0.617 0.924 v 41.069 c 0 5.311 -4.321 9.632 -9.632 9.632 c -5.311 0 -9.632 -4.321 -9.632 -9.632 l 0 -41.069 c 0 -0.404 -0.244 -0.769 -0.617 -0.924 s -0.804 -0.069 -1.09 0.217 l -5.077 5.077 c -1.822 1.822 -4.244 2.823 -6.82 2.821 c -2.576 -0.002 -4.996 -1.009 -6.813 -2.833 c 0 0 0 0 0 0 C 13.088 39.782 12.154 37.32 12.154 34.859 z" style="stroke: none; stroke-width: 1; stroke-dasharray: none; stroke-linecap: butt; stroke-linejoin: miter; stroke-miterlimit: 10; fill: rgb(0,0,0); fill-rule: nonzero; opacity: 1;" transform=" matrix(1 0 0 1 0 0) " stroke-linecap="round" />
</g>
</svg>